<svg xmlns="http://www.w3.org/2000/svg" viewBox="0 0 512 512" role="img" aria-label="9Drive">
  <rect width="512" height="512" fill="#2563eb"/>
  <circle cx="256" cy="256" r="214" fill="#1d4ed8"/>
  <path fill="#fff" d="M256 88c69 0 124 52 124 116 0 92-84 160-207 222-17 8-35-10-26-28l54-102c-45-19-69-54-69-92 0-64 55-116 124-116Zm0 62c-32 0-58 24-58 54s26 54 58 54 58-24 58-54-26-54-58-54Z"/>
  <path fill="#bfdbfe" d="M305 314c-20 11-43 22-71 36l-19 35c65-34 115-70 144-111-14 14-33 26-54 40Z"/>
</svg>
